<svg xmlns="http://www.w3.org/2000/svg" width="122.091" height="137.403"><g data-name="グループ 46520"><g data-name="グループ 46490"><path d="M66.465 57.084 3.475 86.67C1.857 87.429 0 86.249 0 84.462V46.401a5.92 5.92 0 0 1 3.403-5.358l62.955-29.568c1.52-.714 3.266.395 3.266 2.074V52.11a5.495 5.495 0 0 1-3.16 4.974Z" fill="#1788dd" fill-rule="evenodd" data-name="パス 98412"/><path d="M65.316 40.8s-10.304 18.236-19.951 7.592c-6.96-7.678-12.045-6.733-17.706-3.07-6.301 4.077-8.451 13.492-17.124 6.672-8.673-6.82-7.932 1.853-7.932 1.853" stroke-linejoin="round" stroke-linecap="round" stroke-width=".861" stroke="#fbfbfb" fill="transparent" data-name="パス 98413"/><g data-name="グループ 46488"><path d="m56.05 25.646 8.162-3.827c.336-.155.61-.557.61-.893 0-.335-.274-.482-.61-.327l-8.162 3.827c-.335.156-.61.558-.61.893 0 .336.275.483.61.327Z" fill="#fdfdfd" fill-rule="evenodd" data-name="パス 98414"/><path d="m56.05 36.743 8.162-3.828c.336-.155.61-.557.61-.892 0-.336-.274-.483-.61-.328l-8.162 3.828c-.335.155-.61.557-.61.892 0 .336.275.483.61.328Z" fill="#fdfdfd" fill-rule="evenodd" data-name="パス 98415"/><path d="m45.922 34.157 18.29-8.449c.336-.155.61-.557.61-.892 0-.336-.274-.483-.61-.328l-18.29 8.45c-.336.155-.61.556-.61.892 0 .335.274.483.61.327Z" fill="#fdfdfd" fill-rule="evenodd" data-name="パス 98416"/><path d="m45.922 38.046 18.29-8.448c.336-.156.61-.558.61-.893 0-.336-.274-.483-.61-.327l-18.29 8.448c-.336.156-.61.558-.61.893 0 .335.274.483.61.327Z" fill="#fdfdfd" fill-rule="evenodd" data-name="パス 98417"/></g><g data-name="グループ 46489"><path d="m14.781 65.89 8.163-3.827c.335-.156.61-.557.61-.893 0-.335-.275-.483-.61-.327L14.78 64.67c-.335.156-.61.557-.61.893 0 .335.275.483.61.327Z" fill="#fdfdfd" fill-rule="evenodd" data-name="パス 98418"/><path d="m14.781 76.987 8.163-3.828c.335-.155.61-.557.61-.893 0-.335-.275-.482-.61-.327l-8.163 3.828c-.335.155-.61.557-.61.892 0 .336.275.483.61.328Z" fill="#fdfdfd" fill-rule="evenodd" data-name="パス 98419"/><path d="m4.653 74.401 18.29-8.449c.336-.155.61-.557.61-.892 0-.336-.274-.483-.61-.328l-18.29 8.449c-.335.156-.61.557-.61.893 0 .335.275.482.61.327Z" fill="#fdfdfd" fill-rule="evenodd" data-name="パス 98420"/><path d="m4.653 78.29 18.29-8.449c.336-.155.61-.557.61-.892 0-.336-.274-.483-.61-.327L4.654 77.07c-.335.156-.61.557-.61.893 0 .335.275.483.61.327Z" fill="#fdfdfd" fill-rule="evenodd" data-name="パス 98421"/></g></g><g data-name="グループ 46510"><path d="m463.652 710.515-62.99 29.584c-1.618.76-3.475-.42-3.475-2.206V699.83a5.92 5.92 0 0 1 3.403-5.358l62.955-29.568c1.52-.714 3.266.395 3.266 2.075v38.561a5.495 5.495 0 0 1-3.16 4.974Z" fill-rule="evenodd" fill="url(&quot;#a&quot;)" transform="translate(-395.372 -602.931)" data-name="パス 98422"/><g data-name="グループ 46491"><path d="M46.464 89.588c0 3.807 3.086 5.35 6.893 3.447 3.807-1.904 6.893-6.533 6.893-10.34 0-3.807-3.086-5.35-6.893-3.447-3.807 1.904-6.893 6.533-6.893 10.34Zm1.408-.704c0-3.03 2.456-6.713 5.485-8.227 3.029-1.515 5.485-.287 5.485 2.742 0 3.03-2.456 6.712-5.485 8.227-3.03 1.515-5.485.287-5.485-2.742Z" fill="#fff" fill-rule="evenodd" data-name="パス 98423"/><path d="M28.576 97.938c0 3.807 3.086 5.35 6.893 3.446 3.807-1.903 6.894-6.533 6.894-10.34 0-3.807-3.087-5.35-6.894-3.446-3.807 1.903-6.893 6.532-6.893 10.34Zm1.408-.705c0-3.029 2.456-6.712 5.485-8.227 3.03-1.515 5.485-.287 5.485 2.743 0 3.029-2.455 6.712-5.485 8.227-3.029 1.514-5.485.287-5.485-2.743Z" fill="#fff" fill-rule="evenodd" data-name="パス 98424"/><path d="M10.688 106.287c0 3.807 3.086 5.35 6.894 3.447 3.807-1.904 6.893-6.533 6.893-10.34 0-3.807-3.086-5.35-6.893-3.447-3.808 1.904-6.894 6.533-6.894 10.34Zm1.409-.704c0-3.03 2.455-6.713 5.485-8.227 3.029-1.515 5.484-.287 5.484 2.742 0 3.03-2.455 6.713-5.484 8.227-3.03 1.515-5.485.287-5.485-2.742Z" fill="#fff" fill-rule="evenodd" data-name="パス 98425"/></g><g data-name="グループ 46497"><g data-name="グループ 46496"><g data-name="グループ 46492"><path d="M51.478 99.227 59.64 95.4c.336-.156.61-.557.61-.893 0-.335-.274-.483-.61-.327l-8.162 3.827c-.335.156-.61.558-.61.893 0 .335.275.483.61.327Z" fill="#fff" fill-rule="evenodd" data-name="パス 98426"/></g><g data-name="グループ 46493"><path d="m51.478 75.7 8.162-3.828c.336-.155.61-.557.61-.892 0-.336-.274-.483-.61-.328l-8.162 3.828c-.335.155-.61.557-.61.892 0 .336.275.483.61.328Z" fill="#fff" fill-rule="evenodd" data-name="パス 98427"/></g><g data-name="グループ 46494"><path d="m51.478 106.668 8.162-3.828c.336-.155.61-.557.61-.892 0-.336-.274-.483-.61-.327l-8.162 3.827c-.335.155-.61.557-.61.893 0 .335.275.482.61.327Z" fill="#fff" fill-rule="evenodd" data-name="パス 98428"/></g><g data-name="グループ 46495"><path d="M48.193 104.723 59.64 99.29c.336-.155.61-.557.61-.893 0-.335-.274-.482-.61-.327l-11.447 5.434c-.336.156-.61.557-.61.893 0 .335.274.483.61.327Z" fill="#fff" fill-rule="evenodd" data-name="パス 98429"/></g></g></g><g data-name="グループ 46503"><g data-name="グループ 46502"><g data-name="グループ 46498"><path d="m34.278 107.95 8.162-3.828c.335-.155.61-.557.61-.892 0-.336-.275-.483-.61-.328l-8.162 3.828c-.336.155-.61.557-.61.893 0 .335.274.482.61.327Z" fill="#fff" fill-rule="evenodd" data-name="パス 98430"/></g><g data-name="グループ 46499"><path d="m34.278 84.422 8.162-3.827c.335-.156.61-.557.61-.893 0-.335-.275-.483-.61-.327l-8.162 3.827c-.336.156-.61.557-.61.893 0 .335.274.483.61.327Z" fill="#fff" fill-rule="evenodd" data-name="パス 98431"/></g><g data-name="グループ 46500"><path d="m34.278 115.39 8.162-3.827c.335-.155.61-.557.61-.893 0-.335-.275-.482-.61-.327l-8.162 3.827c-.336.156-.61.558-.61.893 0 .335.274.483.61.327Z" fill="#fff" fill-rule="evenodd" data-name="パス 98432"/></g><g data-name="グループ 46501"><path d="m30.992 113.446 11.448-5.434c.335-.156.61-.558.61-.893 0-.336-.275-.483-.61-.327l-11.448 5.434c-.335.155-.61.557-.61.892 0 .336.275.483.61.328Z" fill="#fff" fill-rule="evenodd" data-name="パス 98433"/></g></g></g><g data-name="グループ 46509"><g data-name="グループ 46508"><g data-name="グループ 46504"><path d="m17.077 116.672 8.162-3.827c.336-.156.61-.557.61-.893 0-.335-.274-.482-.61-.327l-8.162 3.827c-.336.156-.61.557-.61.893 0 .335.274.483.61.327Z" fill="#fff" fill-rule="evenodd" data-name="パス 98434"/></g><g data-name="グループ 46505"><path d="m17.077 93.145 8.162-3.828c.336-.155.61-.557.61-.892 0-.336-.274-.483-.61-.328l-8.162 3.828c-.336.155-.61.557-.61.892 0 .336.274.483.61.328Z" fill="#fff" fill-rule="evenodd" data-name="パス 98435"/></g><g data-name="グループ 46506"><path d="m17.077 124.113 8.162-3.827c.336-.156.61-.558.61-.893 0-.335-.274-.483-.61-.327l-8.162 3.827c-.336.155-.61.557-.61.893 0 .335.274.482.61.327Z" fill="#fff" fill-rule="evenodd" data-name="パス 98436"/></g><g data-name="グループ 46507"><path d="m13.791 122.168 11.448-5.434c.336-.155.61-.557.61-.892 0-.336-.274-.483-.61-.328l-11.448 5.434c-.335.156-.61.558-.61.893 0 .335.275.483.61.327Z" fill="#fff" fill-rule="evenodd" data-name="パス 98437"/></g></g></g></g><g data-name="グループ 46513"><path d="m761.713 397.203 38.092-19.335a1.624 1.624 0 0 1 2.358 1.448v69.17l-42.22 21.43v-69.83c0-1.218.684-2.332 1.77-2.883Z" fill-rule="evenodd" fill="url(&quot;#b&quot;)" transform="translate(-680.072 -377.69)" data-name="パス 98438"/><path d="M87.435 33.746c-1.047 6.704 3.964 10.268 11.191 7.963 7.227-2.306 13.933-9.61 14.98-16.314 1.045-6.703-3.965-10.268-11.192-7.962-7.227 2.306-13.933 9.61-14.98 16.313Zm9.863-6.804a1.644 1.644 0 0 0-.243-.25c.112.047.212.119.242.248v.002Zm-8.381 6.331c.927-5.943 6.874-12.42 13.282-14.465s10.851 1.116 9.924 7.06c-.442 2.834-2.033 5.784-4.263 8.322.156-3.225-2.304-4.958-5.862-4.133l.013-.27c.14-.155.258-.295.334-.394.666-.863.733-2.287.733-2.287s.331-.094.73-.477c.295-.283.372-1.328.27-1.833.041.053.067.099.067.099s.194-.686.255-1.604c.062-.918-.612-1.25-.612-1.25s.056-.808-1.182-1.071c-1.24-.262-4.398.594-5.57 2.366-1.17 1.772-.615 3.903-.615 3.903v-.002c-.09.578-.068 1.33.165 1.432.373.165.704.072.704.072s-.067 1.424.535 1.93c.07.06.178.142.31.228l-.03.635s.036.05.102.113c-2.077 1.225-3.875 2.938-4.89 5.011-.27.55-.474 2.603-.624 3.922-2.817-.935-4.36-3.569-3.776-7.307Zm7.595-6.42.018-.067c.001-.005.01-.006.011-.01-.01.025-.02.048-.029.076Zm-.084.35.002-.006-.002.006Zm7.182-2.462c.006-.008.012-.01.017-.016l-.021.024.004-.008Z" fill="#fffdff" fill-rule="evenodd" data-name="パス 98439"/><g data-name="グループ 46511"><path d="m95.028 57.559 14.258-6.686c.586-.271 1.065-.973 1.065-1.56 0-.585-.48-.842-1.065-.57l-14.258 6.685c-.586.272-1.066.973-1.066 1.56 0 .585.48.843 1.066.571Z" fill="#fdfdfd" fill-rule="evenodd" data-name="パス 98440"/><path d="m95.028 70.557 14.258-6.686c.586-.272 1.065-.973 1.065-1.56 0-.585-.48-.843-1.065-.571l-14.258 6.686c-.586.271-1.066.973-1.066 1.56 0 .585.48.842 1.066.57Z" fill="#fdfdfd" fill-rule="evenodd" data-name="パス 98441"/><path d="m91.465 66.175 19.998-9.493c.586-.271 1.065-.973 1.065-1.559s-.48-.843-1.065-.572l-19.998 9.493c-.586.271-1.065.973-1.065 1.56 0 .585.48.843 1.065.571Z" fill="#fdfdfd" fill-rule="evenodd" data-name="パス 98442"/></g><g data-name="グループ 46512"><path d="M104.866 72.822c0 .38.307.533.685.343.379-.19.686-.65.686-1.028 0-.379-.307-.532-.686-.343-.378.19-.685.65-.685 1.028Z" fill="#fdfdfd" fill-rule="evenodd" data-name="パス 98443"/><path d="M102.714 73.875c0 .379.306.532.685.343.379-.19.686-.65.686-1.029 0-.378-.307-.532-.686-.342-.379.19-.685.65-.685 1.028Z" fill="#fdfdfd" fill-rule="evenodd" data-name="パス 98444"/><path d="M100.561 74.928c0 .379.307.532.686.343.379-.19.686-.65.686-1.029 0-.378-.307-.532-.686-.342-.379.189-.686.65-.686 1.028Z" fill="#fdfdfd" fill-rule="evenodd" data-name="パス 98445"/></g></g><g data-name="グループ 46519"><g data-name="グループ 46518"><g data-name="グループ 46514"><path d="m43.435 59.221 3.652-1.614v-1.41l-3.652 1.614v1.41Z" fill="#fdfdfd" fill-rule="evenodd" data-name="パス 98446"/><path d="m43.435 56.782 3.652-1.614v-1.41l-3.652 1.614v1.41Z" fill="#fdfdfd" fill-rule="evenodd" data-name="パス 98447"/><path d="m43.435 54.343 3.652-1.614v-1.41l-3.652 1.614v1.41Z" fill="#fdfdfd" fill-rule="evenodd" data-name="パス 98448"/></g><g data-name="グループ 46515"><path d="m38.173 61.547 3.652-1.615v-1.41l-3.652 1.614v1.41Z" fill="#fdfdfd" fill-rule="evenodd" data-name="パス 98449"/><path d="m38.173 59.108 3.652-1.615v-1.41l-3.652 1.614v1.41Z" fill="#fdfdfd" fill-rule="evenodd" data-name="パス 98450"/><path d="m38.173 56.668 3.652-1.614v-1.41l-3.652 1.614v1.41Z" fill="#fdfdfd" fill-rule="evenodd" data-name="パス 98451"/><path d="m38.173 54.23 3.652-1.615v-1.41l-3.652 1.614v1.41Z" fill="#fdfdfd" fill-rule="evenodd" data-name="パス 98452"/></g><g data-name="グループ 46516"><path d="m32.912 63.872 3.652-1.614v-1.41l-3.652 1.614v1.41Z" fill="#fdfdfd" fill-rule="evenodd" data-name="パス 98453"/><path d="m32.912 61.433 3.652-1.614v-1.41l-3.652 1.614v1.41Z" fill="#fdfdfd" fill-rule="evenodd" data-name="パス 98454"/><path d="m32.912 58.994 3.652-1.614v-1.41l-3.652 1.614v1.41Z" fill="#fdfdfd" fill-rule="evenodd" data-name="パス 98455"/><path d="m32.912 56.555 3.652-1.614v-1.41l-3.652 1.614v1.41Z" fill="#fdfdfd" fill-rule="evenodd" data-name="パス 98456"/><path d="m32.912 54.116 3.652-1.614v-1.41l-3.652 1.614v1.41Z" fill="#fdfdfd" fill-rule="evenodd" data-name="パス 98457"/></g><g data-name="グループ 46517"><path d="m27.65 66.198 3.652-1.614v-1.41l-3.652 1.614v1.41Z" fill="#fdfdfd" fill-rule="evenodd" data-name="パス 98458"/><path d="m27.65 63.759 3.652-1.614v-1.41l-3.652 1.614v1.41Z" fill="#fdfdfd" fill-rule="evenodd" data-name="パス 98459"/><path d="m27.65 61.32 3.652-1.615v-1.41L27.65 59.91v1.41Z" fill="#fdfdfd" fill-rule="evenodd" data-name="パス 98460"/><path d="m27.65 58.88 3.652-1.614v-1.41L27.65 57.47v1.41Z" fill="#fdfdfd" fill-rule="evenodd" data-name="パス 98461"/><path d="m27.65 56.441 3.652-1.614v-1.41l-3.652 1.614v1.41Z" fill="#fdfdfd" fill-rule="evenodd" data-name="パス 98462"/><path d="m27.65 54.002 3.652-1.614v-1.41l-3.652 1.614v1.41Z" fill="#fdfdfd" fill-rule="evenodd" data-name="パス 98463"/></g></g></g></g><defs><linearGradient x1="0" y1=".5" x2="1" y2=".5" id="a"><stop stop-color="#1788dd" offset="0"/><stop stop-color="#2c9dbc" offset="1"/></linearGradient><linearGradient x1="0" y1=".5" x2="1" y2=".5" id="b"><stop stop-color="#1788dd" offset="0"/><stop stop-color="#2c9dbc" offset="1"/></linearGradient></defs></svg>